<svg width="24" height="24" viewBox="0 0 24 24" fill="none" xmlns="http://www.w3.org/2000/svg">
<rect width="24" height="24" fill="white"/>
<path d="M4.25553 12.8642C4.31687 13.3774 4.68115 15.9474 6.97324 17.725C8.69576 19.0607 10.5347 19.1921 11.1919 19.2084C11.1906 19.301 11.1894 19.4237 11.1869 19.5714C11.1819 19.793 11.1769 19.8781 11.1756 20.0396C11.1756 20.136 11.1756 20.2612 11.1819 20.4089C7.17729 20.6167 3.23654 17.1279 3.04126 12.8817C3.23905 12.8717 3.44435 12.8642 3.65465 12.8617C3.8612 12.8592 4.0615 12.8604 4.25553 12.8642Z" fill="#E58D0B"/>
<path d="M10.7425 12.3046C10.7412 10.6497 10.7412 8.99477 10.74 7.33986C10.9377 7.33485 11.138 7.3311 11.3421 7.32859C11.5436 7.32734 11.7427 7.32609 11.9392 7.32859C11.9442 9.20884 11.948 11.0891 11.953 12.9693C11.0041 13.8569 10.0227 14.7719 8.95611 15.6507C8.83092 15.4955 8.70199 15.3253 8.5743 15.1387C8.4391 14.9434 8.32143 14.7544 8.21753 14.5754C9.0575 13.8193 9.89998 13.062 10.7425 12.3046Z" fill="#E58D0B"/>
<path d="M5.74529 7.9107C5.45862 7.59149 5.17195 7.27227 4.88403 6.95306C5.29338 6.42854 6.0282 5.62612 7.17237 4.98143C8.61948 4.16774 9.98022 4.02504 10.69 4C10.6963 4.2078 10.7013 4.41936 10.7038 4.63467C10.7063 4.85374 10.7063 5.06906 10.705 5.28187C10.327 5.31317 9.96144 5.36699 9.60842 5.44836C9.60842 5.44836 9.07765 5.57229 8.57692 5.77509C7.2287 6.31963 5.82666 7.82182 5.74529 7.9107Z" fill="#E58D0B"/>
<path d="M3 11.5749C3.1715 9.77857 3.7899 8.25885 4.90277 6.93066C5.20446 7.25739 5.4686 7.54281 5.77405 7.87329C5.4711 8.26261 5.09806 8.82468 4.79762 9.56075C4.47215 10.3594 4.34947 11.0755 4.3019 11.5887C4.09785 11.595 3.88504 11.5975 3.66597 11.5962C3.43563 11.5937 3.21406 11.5862 3 11.5749Z" fill="#E58D0B"/>
<path d="M16.4958 12.8604C18.0456 12.8604 19.4602 12.8604 20.9999 12.8604C20.2088 13.7642 19.4789 14.5979 18.7041 15.4829C17.9755 14.6179 17.277 13.788 16.4958 12.8604Z" fill="#E58D0B"/>
<path d="M12.0168 5.29186C12.0168 4.85497 12.0168 4.46691 12.0168 4.05005C12.4325 4.06632 12.9732 4.12516 13.5816 4.30041C14.1612 4.46691 14.6307 4.68723 14.9824 4.88377C14.8848 5.08406 14.7771 5.29186 14.6594 5.50467C14.5518 5.69996 14.4441 5.88523 14.3365 6.06173C14.0323 5.88773 13.6392 5.6987 13.1648 5.54598C12.7354 5.40703 12.3423 5.33192 12.0168 5.29186Z" fill="#E58D0B"/>
<path d="M14.3376 6.06176C14.4553 5.87023 14.573 5.66618 14.6894 5.45212C14.7958 5.25809 14.8935 5.06781 14.9836 4.88379C15.612 5.20676 16.4457 5.73378 17.2381 6.57751C17.6199 6.98435 17.9191 7.38869 18.152 7.75172C17.9942 7.86564 17.814 7.98331 17.6137 8.09848C17.3934 8.22491 17.183 8.32756 16.9903 8.41143C16.8213 8.11726 16.5947 7.78552 16.2905 7.45003C15.6032 6.69643 14.8471 6.28333 14.3376 6.06176Z" fill="#E58D0B"/>
<path d="M18.1522 7.75293C18.5203 8.29247 18.9809 9.11992 19.2276 10.2078C19.3402 10.7047 19.3865 11.1591 19.3978 11.551C18.9847 11.551 18.6016 11.551 18.1798 11.551C18.1372 11.2443 18.0721 10.9088 17.9732 10.5545C17.7179 9.63943 17.3273 8.91588 16.978 8.39011C17.2134 8.26868 17.4537 8.14225 17.6953 8.0083C17.8506 7.92443 18.002 7.83931 18.1522 7.75293Z" fill="#E58D0B"/>
</svg>
