<svg width="24" height="24" viewBox="0 0 24 24" fill="none" xmlns="http://www.w3.org/2000/svg">
<rect width="24" height="24" fill="white"/>
<path d="M11.6677 11.8536H19.9999V20.1271H11.6677V11.8536Z" fill="white" stroke="#BE1622" stroke-width="2"/>
<path d="M7.89682 14.7632H5.99585V16.5331H7.89682V14.7632Z" fill="#BE1622"/>
<path d="M7.89682 11.8883H5.99585V13.6583H7.89682V11.8883Z" fill="#BE1622"/>
<path d="M7.89682 9.01343H5.99585V10.7834H7.89682V9.01343Z" fill="#BE1622"/>
<path d="M7.89682 6.13843H5.99585V7.90836H7.89682V6.13843Z" fill="#BE1622"/>
<path d="M14.6189 6.13797V8.03894H16.3888V6.13797H14.6189Z" fill="#BE1622"/>
<path d="M11.7444 6.13809V8.03906H13.5143V6.13809H11.7444Z" fill="#BE1622"/>
<path d="M8.86963 6.13809V8.03906H10.6396V6.13809H8.86963Z" fill="#BE1622"/>
<path d="M14.5623 9.01429V9.73987H16.3889V9.01429H14.5623Z" fill="#BE1622"/>
<path d="M9.59399 14.736H8.86841V16.5626H9.59399V14.736Z" fill="#BE1622"/>
<path d="M11.3406 4.76159V3H3V11.5069H4.58746V4.76159H11.3406Z" fill="#BE1622"/>
</svg>
