<svg width="24" height="24" viewBox="0 0 24 24" fill="none" xmlns="http://www.w3.org/2000/svg">
<rect width="24" height="24" fill="white"/>
<path d="M5.55292 13.5825C5.60951 14.056 5.9456 16.4271 8.06032 18.0672C9.64953 19.2995 11.3462 19.4208 11.9525 19.4358C11.9513 19.5213 11.9502 19.6344 11.9479 19.7707C11.9433 19.9751 11.9386 20.0537 11.9375 20.2027C11.9375 20.2916 11.9375 20.4071 11.9433 20.5434C8.24857 20.7351 4.61279 17.5163 4.43262 13.5987C4.6151 13.5894 4.80451 13.5825 4.99854 13.5802C5.18796 13.5779 5.3739 13.579 5.55292 13.5825Z" fill="#BE16A3"/>
<path d="M11.5368 13.0663C11.5357 11.5394 11.5357 10.0126 11.5345 8.48573C11.717 8.48111 11.9018 8.47764 12.09 8.47533C12.276 8.47418 12.4596 8.47302 12.6409 8.47533C12.6456 10.2101 12.649 11.9448 12.6536 13.6795C11.7782 14.4984 10.8727 15.3427 9.8887 16.1534C9.7732 16.0102 9.65424 15.8532 9.53644 15.6811C9.4117 15.5009 9.30314 15.3265 9.20728 15.1613C9.9834 14.4638 10.7607 13.765 11.5368 13.0663Z" fill="#BE16A3"/>
<path d="M6.92595 9.01237C6.66147 8.71785 6.39699 8.42334 6.13135 8.12883C6.50902 7.6449 7.18697 6.90458 8.2426 6.30978C9.57772 5.55906 10.8332 5.4274 11.488 5.4043C11.4938 5.59602 11.4984 5.79121 11.5007 5.98986C11.503 6.19197 11.503 6.39063 11.5019 6.58697C11.1531 6.61584 10.8158 6.6655 10.4901 6.74058C10.4901 6.74058 10.0004 6.85492 9.53845 7.04202C8.29457 7.54442 7.00218 8.93036 6.92595 9.01237Z" fill="#BE16A3"/>
<path d="M4.39429 12.3929C4.55252 10.7355 5.12306 9.33344 6.14981 8.10803C6.42816 8.40947 6.67185 8.6728 6.95366 8.97771C6.67416 9.3369 6.32998 9.85547 6.0528 10.5346C5.75251 11.2714 5.63933 11.9321 5.59544 12.4056C5.40718 12.4114 5.21084 12.4137 5.00872 12.4125C4.79506 12.4091 4.59063 12.4033 4.39429 12.3929Z" fill="#BE16A3"/>
<path d="M16.8447 13.5779C18.2746 13.5779 19.5797 13.5779 21.0002 13.5779C20.2703 14.4118 19.597 15.181 18.8821 15.9975C18.211 15.2006 17.5654 14.4337 16.8447 13.5779Z" fill="#BE16A3"/>
<path d="M12.7134 6.59615C12.7134 6.19307 12.7134 5.83504 12.7134 5.45044C13.0968 5.46545 13.5958 5.51974 14.1571 5.68143C14.6918 5.83504 15.1249 6.03831 15.4495 6.21963C15.3594 6.40443 15.26 6.59615 15.1515 6.79249C15.0522 6.97266 14.9528 7.14359 14.8535 7.30644C14.5728 7.1459 14.2102 6.97151 13.7725 6.8306C13.3752 6.7024 13.0137 6.63311 12.7134 6.59615Z" fill="#BE16A3"/>
<path d="M14.8535 7.30654C14.9621 7.12983 15.0706 6.94157 15.1781 6.74408C15.2762 6.56506 15.3663 6.3895 15.4495 6.21973C16.0293 6.5177 16.7985 7.00394 17.5295 7.78238C17.8818 8.15774 18.1578 8.53078 18.3727 8.86572C18.2271 8.97082 18.0608 9.07939 17.876 9.18564C17.6727 9.30229 17.4787 9.397 17.3009 9.47438C17.1449 9.20297 16.9359 8.8969 16.6552 8.58738C16.0223 7.8921 15.3236 7.51096 14.8535 7.30654Z" fill="#BE16A3"/>
<path d="M18.3727 8.8667C18.7122 9.36448 19.1372 10.1279 19.3648 11.1316C19.4687 11.5901 19.5114 12.0093 19.5218 12.3708C19.1407 12.3708 18.7873 12.3708 18.3981 12.3708C18.3588 12.0879 18.2987 11.7783 18.2075 11.4515C17.9719 10.6072 17.6115 9.93965 17.2893 9.45457C17.5064 9.34254 17.7282 9.22589 17.9511 9.10231C18.0943 9.02493 18.2352 8.94524 18.3727 8.8667Z" fill="#BE16A3"/>
<path d="M14.3463 4.98286L13.3623 4L12.1253 5.23695L10.8884 4L9.90552 4.98286L11.1425 6.21981L9.90552 7.45677L10.8884 8.43963L12.1253 7.20268L13.3623 8.43963L14.3463 7.45677L13.1093 6.21981L14.3463 4.98286Z" fill="#BE16A3" stroke="white" stroke-miterlimit="10"/>
<path d="M7.44079 11.9218L6.45792 10.939L5.22097 12.1759L3.98402 10.939L3 11.9218L4.23695 13.1588L3 14.3957L3.98402 15.3798L5.22097 14.1428L6.45792 15.3798L7.44079 14.3957L6.20383 13.1588L7.44079 11.9218Z" fill="#BE16A3" stroke="white" stroke-miterlimit="10"/>
</svg>
